<?xml version="1.0" standalone="no"?>
<!DOCTYPE svg PUBLIC "-//W3C//DTD SVG 20010904//EN"
 "http://www.w3.org/TR/2001/REC-SVG-20010904/DTD/svg10.dtd">
<svg version="1.0" xmlns="http://www.w3.org/2000/svg"
 width="512.000000pt" height="512.000000pt" viewBox="0 0 512.000000 512.000000"
 preserveAspectRatio="xMidYMid meet">

<g transform="translate(0.000000,512.000000) scale(0.100000,-0.100000)"
fill="#000000" stroke="none">
<path d="M2330 4919 c-481 -53 -926 -239 -1275 -531 -448 -375 -729 -861 -832
-1438 -23 -127 -26 -174 -27 -375 -1 -262 13 -383 69 -601 79 -309 210 -580
408 -844 84 -113 280 -317 392 -407 264 -214 582 -374 909 -458 211 -54 340
-69 586 -69 244 0 373 15 586 69 839 214 1508 888 1713 1725 52 215 65 332 65
570 0 244 -15 371 -69 586 -103 403 -302 758 -594 1058 -145 148 -237 225
-397 332 -282 188 -627 320 -964 369 -136 20 -450 28 -570 14z m585 -158 c280
-48 517 -132 755 -269 l105 -60 13 -52 c7 -29 11 -54 9 -56 -2 -3 -31 3 -63
11 -35 9 -94 15 -145 14 l-86 -2 -149 75 c-234 117 -469 183 -734 207 -356 33
-761 -22 -1148 -157 -62 -21 -109 -35 -105 -31 4 4 46 30 93 57 269 154 578
251 915 286 100 10 424 -3 540 -23z m-287 -272 c218 -23 436 -83 621 -170 58
-27 106 -51 108 -53 2 -2 -8 -21 -22 -42 -15 -22 -29 -51 -32 -67 -4 -17 -13
-29 -27 -32 -285 -63 -407 -97 -581 -160 -736 -267 -1376 -789 -1863 -1522
-105 -158 -199 -316 -293 -497 l-77 -149 -26 84 c-78 257 -101 408 -100 679 0
223 7 290 50 487 70 315 231 653 434 907 158 196 697 432 1170 511 207 35 457
44 638 24z m1439 -288 c72 -64 225 -230 245 -265 5 -9 -11 -7 -52 8 -53 20
-64 29 -108 91 -45 64 -76 97 -170 178 -23 20 -32 36 -32 59 0 36 -11 43 117
-71z m-270 -41 c179 -88 327 -280 327 -424 0 -113 -55 -166 -170 -166 -237 0
-510 246 -522 470 -8 127 44 173 190 167 79 -3 95 -7 175 -47z m-501 -197 c52
-171 167 -325 314 -419 33 -22 60 -46 60 -54 0 -28 -99 -308 -155 -442 -333
-782 -901 -1507 -1580 -2018 -141 -106 -379 -264 -488 -324 -79 -44 -56 -52
-234 81 -224 167 -452 427 -589 670 -100 179 -100 146 -1 346 522 1046 1244
1730 2158 2045 118 41 319 96 454 125 41 9 56 7 61 -10z m1032 -202 c31 -16
86 -50 121 -76 60 -45 66 -52 126 -178 249 -521 281 -1117 90 -1678 -33 -96
-154 -363 -162 -355 -2 2 3 45 12 97 114 714 41 1390 -205 1887 l-68 138 14
54 c9 31 13 74 10 98 -3 23 -3 42 -1 42 3 0 31 -13 63 -29z m-34 -631 c171
-520 179 -1147 25 -1838 l-32 -144 -87 -96 c-278 -308 -666 -542 -1075 -647
-222 -57 -325 -70 -565 -70 -340 0 -586 51 -890 182 -153 66 -153 66 -95 100
86 51 348 227 435 293 627 474 1145 1097 1499 1799 113 225 159 333 237 556
44 126 66 179 76 176 7 -2 58 -6 113 -8 88 -3 107 -1 155 20 l55 23 52 -105
c29 -58 73 -167 97 -241z"/>
</g>
</svg>
